# xmcd
#
# Track frame offsets:
#	150
#	13363
#	23785
#	34663
#	45463
#	56263
#	72313
#	87835
#	102763
#	117838
#	128488
#	143038
#	155638
#	168163
#	179035
#	194413
#	203413
#	213688
#	222238
#	242188
#	256663
#	268588
#	279313
#	294163
#
# Disc length: 4016 seconds
#
# Revision: 3
# Processed by: cddbd v1.5PL3 Copyright (c) Steve Scherf et al.
# Submitted via: audiograbber 1.82.02
#
DISCID=560fae18
DTITLE=Various Artist - Christmas Country Style - Disc 2
DYEAR=1900
DGENRE=Country
TTITLE0=Gene Autry - Frosty The Snowman
TTITLE1=George Jones - Jingle Bells
TTITLE2=Willie Nelson - Pretty Paper
TTITLE3=John Schneider - The Christmas Song (Chestnuts Roasting on an Open Fire
TTITLE3=)
TTITLE4=Ray Price - I Heard The Bells On Christmas Day
TTITLE5=Slim Whitman - Where Is The Christ In Christmas
TTITLE6=Jody Miller - What Child Is This
TTITLE7=Marty Robbins - A Christmas Prayer
TTITLE8=Larry Gatlin - Sweet Baby Jesus
TTITLE9=Carl Smith - Silent Night
TTITLE10=Marty Robbins - O Little Town Of Bethlehem
TTITLE11=Chuck Wagon Gang - Going Home For Christmas
TTITLE12=Mickey Gilley - An Old Christmas Card
TTITLE13=George Jones and Tammy Wynette - The Greatest Christmas Gift
TTITLE14=Chet Atkins - Do You Hear What I Hear?
TTITLE15=Charlie Rich - Oh Holy Night
TTITLE16=Merle Haggard - Santa Claus Is Coming To Town
TTITLE17=Willie Nelson - Here Comes Santa Claus
TTITLE18=Johnny Cash - The Ballad Of The Harp Weaver
TTITLE19=Tammy Wynette - It Came Upon A Midnight Clear
TTITLE20=Ray Price - O Come, All Ye Faithful
TTITLE21=Sonny James - Away In A Manger
TTITLE22=Jimmy Dean - Have Yourself A Merry Little Christmas
TTITLE23=Larry Gatlin - Alleluia
EXTD=
EXTT0=Gene Autry
EXTT1=George Jones
EXTT2=Willie Nelson
EXTT3=John Schneider
EXTT4=Ray Price
EXTT5=Slim Whitman
EXTT6=Jody Miller
EXTT7=Marty Robbins
EXTT8=Larry Gatlin
EXTT9=Carl Smith
EXTT10=Marty Robbins
EXTT11=Chuck Wagon Gang
EXTT12=Mickey Gilley
EXTT13=George Jones and Tammy Wynette
EXTT14=Chet Atkins
EXTT15=Charlie Rich
EXTT16=Merle Haggard
EXTT17=Willie Nelson
EXTT18=Johnny Cash
EXTT19=Tammy Wynette
EXTT20=Ray Price
EXTT21=Sonny James
EXTT22=Jimmy Dean
EXTT23=Larry Gatlin
PLAYORDER=
